ModelForces
version=1
nRows=4
nColumns=158
inDegrees=no

This file contains the forces exerted on a model during a simulation.

A force is a generalized force, meaning that it can be either a force (N) or a torque (Nm).

Units are S.I. units (second, meters, Newtons, ...)
Angles are in degrees.

endheader
time	glut_med1_r	glut_med2_r	glut_med3_r	glut_min1_r	glut_min2_r	glut_min3_r	semimem_r	semiten_r	bifemlh_r	bifemsh_r	sar_r	add_long_r	add_brev_r	add_mag1_r	add_mag2_r	add_mag3_r	tfl_r	pect_r	grac_r	glut_max1_r	glut_max2_r	glut_max3_r	iliacus_r	psoas_r	quad_fem_r	gem_r	peri_r	rect_fem_r	vas_med_r	vas_int_r	vas_lat_r	med_gas_r	lat_gas_r	soleus_r	tib_post_r	flex_dig_r	flex_hal_r	tib_ant_r	per_brev_r	per_long_r	per_tert_r	ext_dig_r	ext_hal_r	glut_med1_l	glut_med2_l	glut_med3_l	glut_min1_l	glut_min2_l	glut_min3_l	semimem_l	semiten_l	bifemlh_l	bifemsh_l	sar_l	add_long_l	add_brev_l	add_mag1_l	add_mag2_l	add_mag3_l	tfl_l	pect_l	grac_l	glut_max1_l	glut_max2_l	glut_max3_l	iliacus_l	psoas_l	quad_fem_l	gem_l	peri_l	rect_fem_l	vas_med_l	vas_int_l	vas_lat_l	med_gas_l	lat_gas_l	soleus_l	tib_post_l	flex_dig_l	flex_hal_l	tib_ant_l	per_brev_l	per_long_l	per_tert_l	ext_dig_l	ext_hal_l	ercspn_r	ercspn_l	intobl_r	intobl_l	extobl_r	extobl_l	femur_lat_meniscii_r.femur_lat_r.force.X	femur_lat_meniscii_r.femur_lat_r.force.Y	femur_lat_meniscii_r.femur_lat_r.force.Z	femur_lat_meniscii_r.femur_lat_r.torque.X	femur_lat_meniscii_r.femur_lat_r.torque.Y	femur_lat_meniscii_r.femur_lat_r.torque.Z	femur_lat_meniscii_r.meniscus_lat_r.force.X	femur_lat_meniscii_r.meniscus_lat_r.force.Y	femur_lat_meniscii_r.meniscus_lat_r.force.Z	femur_lat_meniscii_r.meniscus_lat_r.torque.X	femur_lat_meniscii_r.meniscus_lat_r.torque.Y	femur_lat_meniscii_r.meniscus_lat_r.torque.Z	femur_med_meniscii_r.femur_med_r.force.X	femur_med_meniscii_r.femur_med_r.force.Y	femur_med_meniscii_r.femur_med_r.force.Z	femur_med_meniscii_r.femur_med_r.torque.X	femur_med_meniscii_r.femur_med_r.torque.Y	femur_med_meniscii_r.femur_med_r.torque.Z	femur_med_meniscii_r.meniscus_med_r.force.X	femur_med_meniscii_r.meniscus_med_r.force.Y	femur_med_meniscii_r.meniscus_med_r.force.Z	femur_med_meniscii_r.meniscus_med_r.torque.X	femur_med_meniscii_r.meniscus_med_r.torque.Y	femur_med_meniscii_r.meniscus_med_r.torque.Z	femur_med_tibia_r.tibia_upper_r.force.X	femur_med_tibia_r.tibia_upper_r.force.Y	femur_med_tibia_r.tibia_upper_r.force.Z	femur_med_tibia_r.tibia_upper_r.torque.X	femur_med_tibia_r.tibia_upper_r.torque.Y	femur_med_tibia_r.tibia_upper_r.torque.Z	femur_med_tibia_r.femur_med_r.force.X	femur_med_tibia_r.femur_med_r.force.Y	femur_med_tibia_r.femur_med_r.force.Z	femur_med_tibia_r.femur_med_r.torque.X	femur_med_tibia_r.femur_med_r.torque.Y	femur_med_tibia_r.femur_med_r.torque.Z	femur_lat_tibia_r.tibia_upper_r.force.X	femur_lat_tibia_r.tibia_upper_r.force.Y	femur_lat_tibia_r.tibia_upper_r.force.Z	femur_lat_tibia_r.tibia_upper_r.torque.X	femur_lat_tibia_r.tibia_upper_r.torque.Y	femur_lat_tibia_r.tibia_upper_r.torque.Z	femur_lat_tibia_r.femur_lat_r.force.X	femur_lat_tibia_r.femur_lat_r.force.Y	femur_lat_tibia_r.femur_lat_r.force.Z	femur_lat_tibia_r.femur_lat_r.torque.X	femur_lat_tibia_r.femur_lat_r.torque.Y	femur_lat_tibia_r.femur_lat_r.torque.Z	aACL_R	pACL_R	aPCL_R	pPCL_R	aMCL_R	mMCL_R	pMCL_R	aLCL_R	mLCL_R	pLCL_R	aPCL_L	pPCL_L	aMCL_L	aLCL_L	ground_prescribedForce_-80_fx	ground_prescribedForce_-80_fy	ground_prescribedForce_-80_fz
      0.47370468	      7.61634387	      5.71287101	      6.11578000	      2.68010575	      3.20184560	      3.22161265	      0.00000000	      3.31024440	      3.74396181	      5.37926261	      1.49286457	      5.66050894	      4.17373168	      2.94301950	      2.47446265	      4.02480310	      2.84334957	      2.25665159	      1.40517502	      3.68645331	      5.60231134	      4.18262081	     22.73303710	     13.06292556	      3.65617982	      2.86812653	      4.14519610	    130.68785273	     41.85270192	     26.64438800	     58.58750607	      0.00000000	      0.00000000	     11.86205844	     11.44489555	      2.13447964	      2.89353869	     12.07331689	      3.98512598	      7.98894851	      8.13952194	      7.26473251	      1.83081932	      7.61634387	      5.71287101	      6.11578000	      2.68010575	      3.20184560	      3.22161265	      8.84490572	      4.11987755	      7.76580234	      7.27476398	      1.53178776	      5.66050894	      4.17373168	      2.94301950	      2.47446265	      4.02480310	      4.12011664	      2.25665159	      1.57127064	      3.68645331	      5.60231134	      4.18262081	     22.73303710	     13.06292556	      3.65617982	      2.86812653	      4.14519610	     10.78005533	      6.64876511	      7.62791345	      8.20170787	     14.20190133	      6.59446446	     31.50512842	     42.52304156	      2.78712990	      2.95784829	      8.53673541	      4.38497333	     12.57015241	      2.02078850	      5.33304345	      1.69380672	     25.20614345	     25.20614345	      9.07839382	      9.07839382	     26.87502635	     26.87502635	    230.00712556	     61.43548115	     47.42815419	    -20.76988107	      5.75533415	     93.64950260	   -230.00712556	    -61.43548115	    -47.42815419	      2.19501171	     -8.30815039	     -0.26223339	    106.87970251	    -35.21621262	    -14.85387962	      5.32105455	     -2.05422472	     43.18515698	   -106.87970251	     35.21621262	     14.85387962	      0.40995721	      1.88616030	     -1.54974319	   -467.58159426	    -47.91021513	     63.96959394	     -1.02140495	      7.45768041	     -1.75737734	    467.58159426	     47.91021513	    -63.96959394	     26.78181941	     -8.22091319	    189.47982910	    -38.86475125	    -15.74832400	    -11.82959591	      0.56370290	     -1.49622333	      0.13966838	     38.86475125	     15.74832400	     11.82959591	     -5.19437414	      0.95956582	     15.78829258	     77.91513556	     27.35614157	    599.91249441	    244.78398186	     13.98349128	      1.71293945	      0.00000000	      0.00000000	      0.00000000	      0.00000000	      0.00000000	      0.00000000	      0.00000001	      0.00000000	     19.10100000	   -108.32880000	      0.00000000
      0.47700616	      7.61339418	      5.71083941	      6.11357813	      2.67919308	      3.20085826	      3.22036752	      0.00000000	      3.30788035	      3.73909329	      5.35756347	      1.48395639	      5.65847249	      4.17232328	      2.94198055	      2.47356830	      4.02319189	      2.83906233	      2.25587824	      1.40225423	      3.68514337	      5.60031456	      4.18110272	     22.72935292	     13.05878153	      3.65490768	      2.86753083	      4.14283867	    130.65934849	     41.95718926	     26.63663908	     58.69044204	      0.00000000	      0.00000000	     11.82188028	     11.42609648	      2.10257326	      2.84841441	     12.07445085	      3.98056887	      7.99305009	      8.17007911	      7.28716125	      1.87748712	      7.61339418	      5.71083941	      6.11357813	      2.67919308	      3.20085826	      3.22036752	      8.84061247	      4.11829724	      7.76222876	      7.27223123	      1.53126851	      5.65847249	      4.17232328	      2.94198055	      2.47356830	      4.02319189	      4.11912002	      2.25587824	      1.57072877	      3.68514337	      5.60031456	      4.18110272	     22.72935292	     13.05878153	      3.65490768	      2.86753083	      4.14283867	     10.77519123	      6.64634657	      7.62508517	      8.19868218	     14.19156811	      6.58965923	     31.48724959	     42.51602591	      2.78402200	      2.95555443	      8.53307450	      4.38278239	     12.56491802	      2.02014571	      5.33115432	      1.69326112	     25.19754035	     25.19754035	      9.07501955	      9.07501955	     26.87199539	     26.87199539	    230.68608997	     61.49189711	     47.44210987	    -20.77685331	      5.77065217	     93.92709532	   -230.68608997	    -61.49189711	    -47.44210987	      2.19665789	     -8.32704680	     -0.26789255	    107.40490033	    -35.12620285	    -14.80905724	      5.30438832	     -2.06313872	     43.39448149	   -107.40490033	     35.12620285	     14.80905724	      0.40930065	      1.89127112	     -1.54743887	   -474.00604252	    -48.83867536	     65.07501314	     -1.04058894	      7.56588816	     -1.77529386	    474.00604252	     48.83867536	    -65.07501314	     27.24647561	     -8.33214734	    192.08375408	    -39.65325172	    -16.05823608	    -12.05709119	      0.57468987	     -1.52605424	      0.14220745	     39.65325172	     16.05823608	     12.05709119	     -5.29439375	      0.97893089	     16.10859789	     77.61057879	     27.05239221	    599.49177551	    243.96919592	     13.43956391	      1.18132023	      0.00000000	      0.00000000	      0.00000000	      0.00000000	      0.00000000	      0.00000000	      0.00000001	      0.00000000	     19.10100000	   -108.32880000	      0.00000000
      0.48030764	      7.61056743	      5.70889245	      6.11146800	      2.67831842	      3.19991205	      3.21917428	      0.00000000	      3.30623198	      3.73501704	      5.37327033	      1.49982308	      5.65652087	      4.17097351	      2.94098489	      2.47271121	      4.02164784	      2.84082675	      2.25513710	      1.40406270	      3.68388801	      5.59840098	      4.17964788	     22.72582226	     13.05481028	      3.65368852	      2.86695996	      4.14057822	    130.65227912	     41.81930667	     26.61849016	     58.55598225	      0.00000000	      0.00000000	     11.83021360	     11.41788951	      2.07579713	      2.80494922	     12.06075758	      3.97585033	      7.99606630	      8.18789420	      7.29279043	      1.91994544	      7.61056743	      5.70889245	      6.11146800	      2.67831842	      3.19991205	      3.21917428	      8.83649777	      4.11678280	      7.75880399	      7.26980397	      1.53077089	      5.65652087	      4.17097351	      2.94098489	      2.47271121	      4.02164784	      4.11816497	      2.25513710	      1.57020946	      3.68388801	      5.59840098	      4.17964788	     22.72582226	     13.05481028	      3.65368852	      2.86695996	      4.14057822	     10.77052971	      6.64402881	      7.62237477	      8.19578260	     14.18164309	      6.58504377	     31.47010673	     42.50930071	      2.78096457	      2.95331283	      8.52956616	      4.38068243	     12.55989625	      2.01952972	      5.32939615	      1.69275445	     25.18929551	     25.18929551	      9.07178590	      9.07178590	     26.86909073	     26.86909073	    229.60429152	     61.27018681	     47.47307645	    -20.78446461	      5.74670806	     93.48479695	   -229.60429152	    -61.27018681	    -47.47307645	      2.19061531	     -8.29737400	     -0.26338170	    106.76978595	    -35.27917161	    -14.76183324	      5.28292250	     -2.05168758	     43.14173336	   -106.76978595	     35.27917161	     14.76183324	      0.41119529	      1.88223671	     -1.55219534	   -469.62489042	    -48.29060918	     64.25268673	     -1.02803639	      7.49272996	     -1.75971954	    469.62489042	     48.29060918	    -64.25268673	     26.90291350	     -8.25673924	    190.30579395	    -38.42186621	    -15.57869931	    -11.71725613	      0.55775093	     -1.47978492	      0.13832239	     38.42186621	     15.57869931	     11.71725613	     -5.14460183	      0.94882607	     15.60828396	     77.90914137	     27.40492819	    600.28845875	    245.39729825	     14.35855743	      2.11033225	      0.00000000	      0.00000000	      0.00000000	      0.00000000	      0.00000000	      0.00000000	      0.00000001	      0.00000000	     19.10100000	   -108.32880000	      0.00000000
      0.48429090	      7.60731329	      5.70665106	      6.10903878	      2.67731148	      3.19882274	      3.21780063	      0.00000000	      3.30603264	      3.73410158	      5.34646963	      1.47627689	      5.65427415	      4.16941962	      2.93983866	      2.47172453	      4.01987037	      2.83572129	      2.25428387	      1.40050133	      3.68244282	      5.59619803	      4.17797306	     22.72175775	     13.05023869	      3.65228499	      2.86630280	      4.13797443	    130.63601093	     42.02278903	     26.63646432	     58.74984510	      0.00000000	      0.00000000	     11.76690505	     11.40987906	      2.04924924	      2.75272643	     12.06933835	      3.96500402	      7.99162647	      8.22825865	      7.29334962	      1.96827293	      7.60731329	      5.70665106	      6.10903878	      2.67731148	      3.19882274	      3.21780063	      8.83176048	      4.11503937	      7.75486122	      7.26700965	      1.53019800	      5.65427415	      4.16941962	      2.93983866	      2.47172453	      4.01987037	      4.11706554	      2.25428387	      1.56961162	      3.68244282	      5.59619803	      4.17797306	     22.72175775	     13.05023869	      3.65228499	      2.86630280	      4.13797443	     10.76516323	      6.64136061	      7.61925457	      8.19244464	     14.17018942	      6.57971739	     31.45036069	     42.50155629	      2.77733908	      2.95067452	      8.52552735	      4.37826457	     12.55410836	      2.01882059	      5.32744133	      1.69219249	     25.17980375	     25.17980375	      9.06806330	      9.06806330	     26.86574689	     26.86574689	    231.94083850	     61.39733711	     47.20968929	    -20.67952293	      5.79539645	     94.44208404	   -231.94083850	    -61.39733711	    -47.20968929	      2.19130586	     -8.35100089	     -0.28599148	    108.12885242	    -35.12712791	    -14.73331471	      5.27369907	     -2.07469666	     43.68421890	   -108.12885242	     35.12712791	     14.73331471	      0.40992125	      1.89736397	     -1.54892600	   -477.38832646	    -49.29538372	     65.49534090	     -1.04915224	      7.61998290	     -1.78552204	    477.38832646	     49.29538372	    -65.49534090	     27.42462646	     -8.39054578	    193.45348091	    -39.38856396	    -15.92157521	    -11.94919126	      0.56966377	     -1.51449618	      0.13994094	     39.38856396	     15.92157521	     11.94919126	     -5.24713594	      0.97197844	     16.00145679	     77.10773120	     26.53178177	    599.05459818	    242.53253716	     12.28041767	      0.01178107	      0.00000000	      0.00000000	      0.00000000	      0.00000000	      0.00000000	      0.00000000	      0.00000001	      0.00000000	     19.10100000	   -108.32880000	      0.00000000
